HIERARCHY
ROOT joint_Root
{
	OFFSET 0.0 0.0 0.0
	CHANNELS 6 Xposition Yposition Zposition Zrotation Xrotation Yrotation 
	JOINT Hips
	{
		OFFSET -0.726466 93.3139 -2.00062
		CHANNELS 6 Xposition Yposition Zposition Zrotation Xrotation Yrotation 
		JOINT Spine
		{
			OFFSET 15.7357 0.0 0.0
			CHANNELS 6 Xposition Yposition Zposition Zrotation Xrotation Yrotation 
			JOINT Chest
			{
				OFFSET 8.98455 -0.406207 0.0
				CHANNELS 6 Xposition Yposition Zposition Zrotation Xrotation Yrotation 
				JOINT Neck
				{
					OFFSET 16.3773 0.0 0.0
					CHANNELS 6 Xposition Yposition Zposition Zrotation Xrotation Yrotation 
					JOINT Head
					{
						OFFSET 6.45672 0.0 0.0
						CHANNELS 6 Xposition Yposition Zposition Zrotation Xrotation Yrotation 
						End Site
						{
							OFFSET 0.0 0.0 0.0
						}
					}
				}
				JOINT Shoulder_L
				{
					OFFSET 12.9942 -0.242716 4.98039
					CHANNELS 6 Xposition Yposition Zposition Zrotation Xrotation Yrotation 
					JOINT UpperArm_L
					{
						OFFSET 5.34809 0.0 0.0
						CHANNELS 6 Xposition Yposition Zposition Zrotation Xrotation Yrotation 
						JOINT LowerArm_L
						{
							OFFSET 24.3286 1.87007e-05 0.0
							CHANNELS 6 Xposition Yposition Zposition Zrotation Xrotation Yrotation 
							JOINT Hand_L
							{
								OFFSET 22.2916 0.0 0.0
								CHANNELS 6 Xposition Yposition Zposition Zrotation Xrotation Yrotation 
								End Site
								{
									OFFSET 0.0 0.0 0.0
								}
							}
						}
					}
				}
				JOINT Shoulder_R
				{
					OFFSET 12.9945 -0.242716 -4.98039
					CHANNELS 6 Xposition Yposition Zposition Zrotation Xrotation Yrotation 
					JOINT UpperArm_R
					{
						OFFSET -5.34813 0.0 0.0
						CHANNELS 6 Xposition Yposition Zposition Zrotation Xrotation Yrotation 
						JOINT LowerArm_R
						{
							OFFSET -24.3289 0.000322201 0.0
							CHANNELS 6 Xposition Yposition Zposition Zrotation Xrotation Yrotation 
							JOINT Hand_R
							{
								OFFSET -22.2915 -0.000108084 0.0
								CHANNELS 6 Xposition Yposition Zposition Zrotation Xrotation Yrotation 
								End Site
								{
									OFFSET 0.0 0.0 0.0
								}
							}
						}
					}
				}
			}
		}
		JOINT UpperLeg_L
		{
			OFFSET -2.19248 -6.46944 0.0
			CHANNELS 6 Xposition Yposition Zposition Zrotation Xrotation Yrotation 
			JOINT LowerLeg_L
			{
				OFFSET 39.0811 0.0 -1.23785e-05
				CHANNELS 6 Xposition Yposition Zposition Zrotation Xrotation Yrotation 
				JOINT Foot_L
				{
					OFFSET 40.9854 0.0 -1.26872e-05
					CHANNELS 6 Xposition Yposition Zposition Zrotation Xrotation Yrotation 
					JOINT Toes_L
					{
						OFFSET 11.7543 0.0 0.0
						CHANNELS 6 Xposition Yposition Zposition Zrotation Xrotation Yrotation 
						End Site
						{
							OFFSET 0.0 0.0 0.0
						}
					}
				}
			}
		}
		JOINT UpperLeg_R
		{
			OFFSET -2.19251 6.46944 0.0
			CHANNELS 6 Xposition Yposition Zposition Zrotation Xrotation Yrotation 
			JOINT LowerLeg_R
			{
				OFFSET -39.0811 -0.00228153 -0.0401928
				CHANNELS 6 Xposition Yposition Zposition Zrotation Xrotation Yrotation 
				JOINT Foot_R
				{
					OFFSET -40.9854 0.0 0.0
					CHANNELS 6 Xposition Yposition Zposition Zrotation Xrotation Yrotation 
					JOINT Toes_R
					{
						OFFSET -11.7543 0.0 0.0
						CHANNELS 6 Xposition Yposition Zposition Zrotation Xrotation Yrotation 
						End Site
						{
							OFFSET 0.0 0.0 0.0
						}
					}
				}
			}
		}
	}
}
MOTION
Frames:	4
Frame Time:	0.0333333
0.000000 0.000000 0.000000 0.000000 0.000000 -0.000000 -0.924573 92.163800 -3.783410 87.756600 -1.777640 5.586220 15.735700 0.000005 -0.000001 85.943500 82.240000 -85.558700 8.984550 -0.406207 -0.000000 7.719880 -1.093590 0.842799 16.377300 -0.000001 -0.000001 2.413660 -1.355500 0.652139 6.456720 -0.000001 -0.000000 2.416360 -0.245963 -0.050943 12.994200 -0.242716 4.980390 -90.079600 0.280428 -74.157400 5.348090 -0.000007 -0.000001 -62.902600 38.586000 -20.689800 24.328600 0.000019 0.000005 -1.435170 -2.440120 -30.475300 22.291600 -0.000001 0.000005 4.960420 5.620880 -12.679300 12.994500 -0.242716 -4.980390 88.408000 5.754180 -74.506700 -5.348130 -0.000001 -0.000004 -63.669800 37.336400 -20.644300 -24.328900 0.000322 -0.000009 -5.457010 -9.791500 -29.316600 -22.291500 -0.000108 -0.000004 8.242130 5.579250 -10.170500 -2.192480 -6.469440 -0.000000 -169.857000 -20.316000 -3.851020 39.081100 -0.000007 -0.000012 -0.118497 0.267933 23.858200 40.985400 -0.000006 -0.000013 -4.577920 0.068071 -62.318000 11.754300 -0.000000 0.000003 -0.000147 -0.001424 -16.631700 -2.192510 6.469440 -0.000001 174.931000 23.604900 178.271000 -39.081100 -0.002282 -0.040193 0.034922 -0.079803 21.604400 -40.985400 0.000008 0.000006 0.419373 4.250250 -62.486100 -11.754300 -0.000006 -0.000006 -0.004105 -0.052532 -18.710000
0.000000 0.000000 0.000000 0.000000 0.000000 -0.000000 -0.944677 92.173800 -3.753120 87.738000 -1.747210 5.447650 15.735700 0.000005 -0.000001 86.129200 82.314200 -85.723000 8.984550 -0.406207 -0.000000 7.575240 -1.034320 0.879941 16.377300 -0.000001 -0.000001 2.465650 -1.322210 0.668180 6.456720 -0.000001 -0.000000 2.290270 -0.296821 -0.122298 12.994200 -0.242716 4.980390 -90.055900 0.190824 -73.684300 5.348090 -0.000007 -0.000001 -63.164600 34.445700 -19.828400 24.328600 0.000019 0.000005 -0.202408 -0.349329 -30.080300 22.291600 -0.000001 0.000005 5.629160 5.624880 -12.959500 12.994500 -0.242716 -4.980390 88.429700 5.495780 -74.027100 -5.348130 -0.000001 -0.000004 -64.445100 32.438800 -19.726200 -24.328900 0.000322 -0.000009 -4.176100 -8.064370 -27.489100 -22.291500 -0.000108 -0.000004 10.443200 5.585070 -10.487500 -2.192480 -6.469440 -0.000000 -169.878000 -20.351900 -3.953410 39.081100 -0.000007 -0.000012 -0.116049 0.263143 23.798100 40.985400 -0.000006 -0.000013 -4.579290 0.109753 -62.296600 11.754300 -0.000000 0.000003 -0.000148 -0.001438 -16.632200 -2.192510 6.469440 -0.000001 175.003000 23.676500 178.182000 -39.081100 -0.002282 -0.040193 0.034831 -0.079839 21.538900 -40.985400 0.000008 0.000006 0.397473 4.277510 -62.448100 -11.754300 -0.000006 -0.000006 -0.004113 -0.052606 -18.713100
0.000000 0.000000 0.000000 0.000000 0.000000 -0.000000 -0.947550 92.188700 -3.729010 87.726100 -1.723070 5.311640 15.735700 0.000005 -0.000001 86.121800 82.412200 -85.713300 8.984550 -0.406207 -0.000000 7.379560 -1.023950 0.882176 16.377300 -0.000001 -0.000001 2.532290 -1.251320 0.683060 6.456720 -0.000001 -0.000000 2.360380 -0.297862 -0.025076 12.994200 -0.242716 4.980390 -89.967600 -0.107685 -73.243200 5.348090 -0.000007 -0.000001 -62.813600 29.171600 -19.094600 24.328600 0.000019 0.000005 0.570662 1.016320 -29.320800 22.291600 -0.000001 0.000005 6.680240 5.627610 -13.158800 12.994500 -0.242716 -4.980390 88.450200 5.321940 -73.738200 -5.348130 -0.000001 -0.000004 -63.739600 27.012600 -19.355300 -24.328900 0.000322 -0.000009 -3.931010 -8.232800 -25.628400 -22.291500 -0.000108 -0.000004 12.536600 5.586070 -10.546600 -2.192480 -6.469440 -0.000000 -169.921000 -20.277300 -4.041090 39.081100 -0.000007 -0.000012 -0.116495 0.265414 23.697600 40.985400 -0.000006 -0.000013 -4.602710 0.037219 -62.262100 11.754300 -0.000000 0.000003 -0.000155 -0.001495 -16.634400 -2.192510 6.469440 -0.000001 175.075000 23.717000 178.083000 -39.081100 -0.002282 -0.040193 0.035245 -0.081188 21.467100 -40.985400 0.000008 0.000006 0.450420 4.250820 -62.396200 -11.754300 -0.000006 -0.000006 -0.004241 -0.053928 -18.766900
0.000000 0.000000 0.000000 0.000000 0.000000 -0.000000 -0.955268 92.182700 -3.695570 87.738600 -1.694010 5.320290 15.735700 0.000005 -0.000001 86.073300 82.498100 -85.668600 8.984550 -0.406207 -0.000000 7.207260 -1.025740 0.873252 16.377300 -0.000001 -0.000001 2.646120 -1.186740 0.668567 6.456720 -0.000001 -0.000000 2.465780 -0.305563 0.035710 12.994200 -0.242716 4.980390 -89.854600 -0.471014 -72.848900 5.348090 -0.000007 -0.000001 -60.551600 24.334800 -19.269700 24.328600 0.000019 0.000005 0.958316 1.800980 -28.029600 22.291600 -0.000001 0.000005 8.142040 5.628980 -13.260300 12.994500 -0.242716 -4.980390 88.487100 5.069570 -73.358700 -5.348130 -0.000001 -0.000004 -61.490500 21.440400 -19.964200 -24.328900 0.000322 -0.000009 -2.982660 -6.999830 -23.137300 -22.291500 -0.000108 -0.000004 14.023600 5.578010 -10.104900 -2.192480 -6.469440 -0.000000 -169.923000 -20.270500 -4.025290 39.081100 -0.000007 -0.000012 -0.116112 0.264242 23.721600 40.985400 -0.000006 -0.000013 -4.614990 0.021245 -62.291400 11.754300 -0.000000 0.000003 -0.000150 -0.001454 -16.632800 -2.192510 6.469440 -0.000001 175.046000 23.745300 178.123000 -39.081100 -0.002282 -0.040193 0.034636 -0.079607 21.474500 -40.985400 0.000008 0.000006 0.392224 4.254300 -62.444300 -11.754300 -0.000006 -0.000006 -0.004102 -0.052493 -18.708400
